<?xml version="1.0" standalone="no"?>
<!DOCTYPE svg PUBLIC "-//W3C//DTD SVG 20010904//EN"
 "http://www.w3.org/TR/2001/REC-SVG-20010904/DTD/svg10.dtd">
<svg version="1.0" xmlns="http://www.w3.org/2000/svg"
 width="115.000000pt" height="115.000000pt" viewBox="0 0 115.000000 115.000000"
 preserveAspectRatio="xMidYMid meet">
<metadata>
Created by potrace 1.11, written by Peter Selinger 2001-2013
</metadata>
<g transform="translate(0.000000,115.000000) scale(0.100000,-0.100000)"
fill="#000000" stroke="none">
<path d="M0 575 l0 -575 575 0 575 0 0 575 0 575 -575 0 -575 0 0 -575z m500
304 l0 -100 -27 3 c-28 3 -28 4 -28 76 0 60 -3 72 -16 72 -30 0 -44 -30 -42
-91 1 -58 1 -59 -27 -59 -24 0 -28 4 -34 41 -16 98 30 159 120 159 l54 0 0
-101z m120 1 l0 -100 -30 0 -30 0 0 100 0 100 30 0 30 0 0 -100z m200 77 c0
-20 -5 -24 -30 -24 -39 0 -53 -14 -53 -54 0 -37 27 -62 61 -56 18 3 22 0 22
-19 0 -21 -5 -24 -41 -24 -54 0 -78 14 -95 57 -30 71 19 143 97 143 34 0 39
-3 39 -23z m-250 -195 c207 5 275 2 275 -12 0 -12 -20 -16 -105 -18 -58 -1
-109 -7 -114 -12 -7 -7 2 -10 24 -10 48 0 62 -12 55 -41 -4 -18 0 -30 14 -43
27 -25 27 -50 -1 -69 -20 -13 -21 -18 -10 -37 19 -31 -1 -50 -51 -50 -26 0
-38 -3 -31 -10 5 -5 56 -11 114 -12 81 -2 105 -6 105 -17 0 -11 -27 -13 -135
-12 -74 0 -153 1 -175 0 -191 -5 -250 -2 -250 12 0 11 21 15 95 17 104 3 153
22 57 22 -31 0 -57 3 -57 6 0 3 12 15 26 26 20 16 23 23 12 30 -10 6 -8 13 12
30 18 15 21 22 12 26 -10 3 -8 10 9 28 12 13 20 27 16 30 -4 4 3 20 14 35 11
16 17 33 14 39 -3 6 -49 10 -105 10 -55 0 -102 4 -105 10 -16 26 10 31 138 27
73 -3 139 -5 147 -5z m-142 -381 c3 -19 0 -22 -14 -17 -27 10 -64 -20 -64 -52
0 -36 17 -52 52 -52 20 0 28 -5 29 -17 0 -10 7 4 14 32 26 93 45 125 75 125
36 0 47 -15 76 -102 12 -40 23 -65 24 -55 0 14 10 17 65 17 l65 0 0 50 c0 41
-3 50 -18 50 -27 0 -42 -20 -42 -58 0 -30 -2 -33 -27 -30 -26 3 -28 6 -27 47
1 61 27 81 105 81 l59 0 0 -70 c0 -40 4 -70 10 -70 6 0 10 -9 10 -20 0 -19 -7
-20 -129 -20 -105 0 -130 3 -135 15 -3 8 -16 15 -30 15 -19 0 -23 4 -19 20 3
11 12 20 19 20 16 0 16 6 4 35 -6 16 -11 8 -26 -41 l-18 -62 -55 -5 c-35 -4
-66 -1 -86 7 -65 28 -73 129 -12 167 44 27 91 22 95 -10z"/>
<path d="M497 650 c-6 -16 -6 -26 -8 -99 -1 -55 17 -71 78 -71 60 0 78 28 68
110 -7 61 -18 82 -29 55 -7 -19 -26 -19 -26 0 0 20 -20 19 -36 -2 -12 -17 -14
-17 -28 2 -12 16 -15 17 -19 5z m117 -62 c6 -18 6 -38 0 -55 -8 -25 -14 -28
-54 -28 l-45 0 -3 43 c-4 56 11 74 57 70 29 -2 38 -8 45 -30z"/>
<path d="M520 561 c0 -22 5 -43 10 -46 6 -3 10 3 10 14 0 14 6 21 20 21 11 0
20 -7 20 -15 0 -8 5 -15 10 -15 6 0 10 18 10 40 0 22 -4 40 -10 40 -5 0 -10
-7 -10 -15 0 -8 -9 -15 -20 -15 -11 0 -20 7 -20 15 0 8 -4 15 -10 15 -5 0 -10
-18 -10 -39z"/>
</g>
</svg>
